<?xml version="1.0" standalone="no"?>
<!DOCTYPE svg PUBLIC "-//W3C//DTD SVG 20010904//EN"
 "http://www.w3.org/TR/2001/REC-SVG-20010904/DTD/svg10.dtd">
<svg version="1.0" xmlns="http://www.w3.org/2000/svg"
 width="989.000000pt" height="800.000000pt" viewBox="0 0 989.000000 800.000000"
 preserveAspectRatio="xMidYMid meet">

<g transform="translate(0.000000,800.000000) scale(0.100000,-0.100000)"
fill="#000000" stroke="none">
<path d="M7745 6166 c-276 -73 -572 -255 -990 -610 -192 -164 -233 -186 -358
-197 -51 -5 -117 -14 -147 -20 -57 -11 -262 -63 -296 -75 -16 -6 -17 -5 -6 7
22 24 13 29 -45 23 -57 -6 -59 -5 -140 49 -117 78 -303 151 -303 119 0 -6 3
-12 8 -15 8 -4 7 -4 -112 34 -94 30 -230 59 -275 59 -16 0 15 -16 78 -40 86
-33 180 -79 161 -80 -3 0 -30 9 -60 21 -42 16 -313 94 -435 125 -16 4 -14 -1
10 -22 l30 -27 -35 6 c-92 16 -133 19 -127 10 3 -5 24 -16 47 -23 23 -7 43
-16 45 -19 1 -3 -47 -6 -108 -7 -70 -1 -123 -6 -142 -14 l-30 -14 40 -6 40 -6
-40 -12 c-22 -6 -65 -14 -95 -17 -30 -3 -66 -9 -80 -11 -23 -5 -22 -7 15 -24
l40 -18 -35 -1 c-19 0 -65 6 -102 13 -79 15 -89 4 -35 -38 31 -25 28 -24 -90
13 -68 21 -123 36 -123 33 0 -3 7 -14 17 -24 15 -17 14 -18 -18 -18 -19 0 -45
7 -57 16 -28 20 -29 2 -1 -37 11 -16 18 -29 14 -29 -3 0 -51 12 -106 26 -55
14 -155 31 -223 38 -154 16 -174 27 -360 187 -397 342 -746 556 -1011 620
-137 33 -208 20 -250 -45 -46 -70 -72 -314 -55 -529 27 -351 102 -677 216
-933 52 -119 55 -130 60 -227 9 -162 53 -322 114 -407 19 -27 11 -24 -112 38
-200 101 -408 164 -583 176 -91 6 -71 -3 65 -29 124 -24 306 -88 460 -161 174
-84 280 -149 280 -174 0 -25 -26 -50 -53 -50 -27 0 -42 -10 -50 -32 -4 -11
-17 -18 -33 -18 -20 0 -25 -4 -20 -16 5 -13 1 -14 -24 -9 -23 5 -30 3 -30 -8
0 -9 6 -18 13 -21 6 -3 -6 -5 -28 -3 -33 1 -39 -2 -37 -16 2 -14 -5 -17 -37
-17 -22 0 -43 -4 -46 -10 -3 -5 -3 -10 2 -11 19 -2 57 -10 60 -13 2 -2 -19 -6
-47 -10 -59 -8 -65 -23 -12 -31 69 -12 82 -24 25 -24 -28 -1 -64 -6 -80 -12
-27 -11 -24 -13 67 -41 129 -40 144 -56 43 -46 -88 9 -523 12 -575 4 -18 -3
-60 -8 -93 -11 -117 -11 -275 -42 -420 -82 -104 -29 -121 -39 -50 -29 302 41
375 47 585 51 158 2 340 -6 424 -19 17 -3 56 -8 86 -12 74 -9 98 -23 41 -24
-69 0 -247 -29 -350 -56 -134 -35 -267 -103 -176 -90 120 17 235 27 275 24
l45 -3 -65 -37 c-67 -37 -136 -99 -95 -84 33 12 217 66 224 66 3 0 -19 -13
-49 -28 -128 -65 -129 -71 -9 -42 123 29 148 26 78 -10 -53 -27 -87 -56 -77
-65 2 -2 39 4 81 14 42 10 77 16 77 14 0 -2 -21 -13 -46 -23 -25 -11 -55 -27
-67 -36 -21 -15 -19 -16 38 -10 l60 5 -70 -33 c-38 -18 -79 -43 -90 -55 l-19
-22 29 6 30 7 -32 -27 c-36 -29 -78 -84 -70 -91 3 -3 32 8 66 25 33 17 65 31
71 31 5 0 -3 -18 -19 -41 -30 -41 -57 -106 -48 -115 2 -3 17 6 33 19 16 13 44
32 63 41 36 19 36 20 -9 -49 -15 -22 -34 -59 -43 -83 -18 -44 -23 -97 -9 -88
4 2 6 -11 4 -30 -3 -27 -9 -34 -26 -34 -12 0 -92 -18 -177 -39 -219 -55 -273
-62 -624 -76 -445 -18 -520 -22 -775 -41 -113 -8 -221 -19 -240 -23 -44 -11
-155 -10 1785 -17 1315 -4 1599 -8 1640 -19 94 -26 159 -105 211 -254 13 -36
27 -67 32 -69 5 -1 33 34 62 79 70 108 164 207 220 233 36 16 72 21 182 24
170 5 179 3 146 -41 -27 -36 -39 -62 -32 -70 3 -3 38 10 77 28 40 19 108 44
152 57 l80 23 1284 3 c1414 3 1336 6 1465 -59 63 -32 220 -145 386 -279 122
-98 150 -117 150 -99 0 8 -9 29 -21 48 -53 87 -111 216 -119 264 -10 67 1 94
47 115 41 18 267 22 1237 22 254 0 436 4 430 9 -8 7 -105 16 -429 36 -38 2
-133 7 -210 10 -77 3 -194 7 -260 10 -66 3 -194 7 -285 10 -91 3 -179 10 -197
16 -17 6 -43 25 -57 44 -38 49 -57 51 -120 15 -91 -51 -161 -71 -276 -77 -91
-5 -108 -3 -123 11 -21 21 -22 37 -2 30 11 -5 15 2 15 26 l0 32 20 -23 19 -24
1 23 c0 31 17 19 25 -18 9 -42 25 -37 26 8 l0 37 16 -50 c15 -45 17 -48 23
-25 8 29 4 67 -11 126 -6 23 -9 50 -7 60 3 15 8 10 21 -19 22 -50 31 -47 23 9
-5 42 -5 45 11 33 15 -13 16 -11 10 20 -6 31 -32 81 -69 133 -7 9 -9 20 -5 24
4 5 33 -17 63 -47 60 -57 65 -50 23 33 -26 50 -24 62 6 54 20 -5 25 -3 25 13
0 10 -7 24 -15 31 -23 19 -18 31 10 24 67 -17 -7 49 -107 96 l-63 29 54 -6 53
-6 -43 42 -44 42 38 -7 c35 -6 51 6 27 21 -5 3 -14 14 -19 24 -9 16 -4 17 70
13 47 -3 79 -1 79 5 0 5 -27 18 -60 28 -34 10 -63 21 -65 25 -2 4 50 6 115 5
136 -2 140 3 43 57 -29 16 -53 32 -53 34 0 7 304 2 377 -5 35 -4 59 -4 55 0
-16 16 -189 70 -281 89 -53 11 -136 23 -184 26 -48 4 -90 10 -92 14 -2 4 35
15 83 24 48 10 97 19 110 22 183 37 631 54 906 35 92 -7 170 -10 172 -8 7 6
-195 46 -321 63 -145 19 -480 26 -625 13 -96 -8 -220 -25 -357 -47 -41 -7 -51
-6 -43 3 9 11 46 29 173 82 27 12 34 19 25 25 -12 8 -113 2 -152 -9 -10 -3
-16 -1 -13 4 4 6 36 18 72 28 36 9 67 21 70 25 3 4 -29 11 -70 15 -83 7 -90
19 -18 30 124 17 117 36 -14 43 l-88 5 50 23 50 22 -66 1 c-36 1 -88 -6 -115
-14 -71 -22 -74 -19 -24 25 43 37 42 52 -2 29 -11 -6 -22 -8 -26 -5 -7 8 8 20
148 114 192 130 414 230 695 314 103 30 119 37 75 32 -81 -9 -267 -59 -372
-99 -125 -48 -301 -142 -426 -226 l-103 -69 65 127 c93 184 106 222 116 340
12 138 28 193 113 403 119 290 180 623 181 975 0 337 -38 434 -175 450 -29 3
-75 -3 -134 -19z m-1385 -2567 c65 -15 167 -66 212 -107 63 -57 91 -122 96
-222 10 -212 -116 -427 -306 -523 -92 -46 -164 -60 -277 -55 -79 3 -102 8
-158 36 -37 18 -91 55 -120 82 -59 54 -65 53 -96 -7 -16 -32 -49 -29 -63 5 -6
15 -11 77 -12 137 -1 255 116 468 324 594 51 31 55 26 19 -26 -51 -74 -71
-137 -77 -244 -7 -150 32 -272 115 -351 44 -43 79 -58 133 -58 54 0 89 15 133
58 173 166 147 529 -47 660 l-48 32 63 0 c35 0 84 -5 109 -11z m-2625 -18
c-121 -55 -192 -212 -183 -405 7 -125 34 -194 108 -268 48 -47 64 -57 103 -63
97 -15 208 73 257 202 27 72 37 206 21 285 -16 75 -64 171 -103 203 -17 14
-29 28 -27 30 8 7 104 -46 157 -87 100 -77 190 -225 226 -369 19 -76 22 -260
5 -308 -16 -45 -53 -43 -76 4 -9 19 -22 35 -29 35 -7 0 -35 -20 -63 -43 -150
-128 -323 -150 -510 -66 -206 93 -334 298 -333 535 0 98 18 139 90 206 88 83
202 127 327 127 l70 0 -40 -18z m243 -349 c25 -102 -28 -217 -58 -126 -15 44
-9 146 10 168 21 26 34 14 48 -42z m2349 21 c15 -36 13 -115 -3 -157 -10 -26
-43 -19 -55 12 -14 35 -7 145 10 166 20 24 30 20 48 -21z m-4207 -728 c0 -20
-36 -55 -56 -55 -11 0 -6 10 17 35 38 40 39 40 39 20z"/>
</g>
</svg>
